<svg width="192" height="32" fill="none" xmlns="http://www.w3.org/2000/svg"><g clip-path="url('#clip0_18007_40')" fill="#fff"><path d="M180.878 17.657c.204-1.634 1.1-2.276 3.018-2.276h.765c1.917 0 2.812.642 3.018 2.276h-6.801Zm4.167-5.317h-1.541c-3.86 0-6.084 2.224-6.084 6.084v1.348c0 3.858 2.224 6.057 6.084 6.057h6.417a.397.397 0 0 0 .35-.384V23.169c0-.204.025-.383-.181-.383h-6.203c-1.842 0-2.868-.748-2.966-2.25h9.84a.392.392 0 0 0 .384-.383v-1.737c0-3.86-2.249-6.085-6.11-6.085M119.779 17.657c.204-1.634 1.099-2.276 3.017-2.276h.766c1.917 0 2.812.642 3.016 2.276h-6.799Zm4.167-5.317h-1.535c-3.859 0-6.083 2.224-6.083 6.084v1.348c0 3.858 2.224 6.057 6.083 6.057h6.42a.396.396 0 0 0 .35-.384V23.169c0-.204.025-.383-.18-.383h-6.207c-1.84 0-2.868-.748-2.966-2.25h9.842a.391.391 0 0 0 .383-.383v-1.737c0-3.86-2.25-6.085-6.108-6.085M89.4 17.657c.204-1.634 1.1-2.276 3.017-2.276h.766c1.918 0 2.812.642 3.018 2.276h-6.8Zm4.167-5.317h-1.533c-3.86 0-6.083 2.224-6.083 6.084v1.348c0 3.858 2.223 6.057 6.083 6.057h6.416a.397.397 0 0 0 .35-.384V23.169c0-.204.026-.383-.18-.383h-6.21c-1.84 0-2.866-.748-2.964-2.25h9.84a.393.393 0 0 0 .384-.383v-1.737c0-3.86-2.25-6.085-6.11-6.085M73.48 25.836c.208 0 .258-.155.258-.36V18.46c0-2.203.455-3.049 3.024-3.049h.764c2.612 0 3.047.847 3.047 2.663v7.396c0 .207.016.36.224.36h2.981c.204 0 .227-.156.227-.36v-7.397c0-3.787-2.049-5.709-6.095-5.709h-1.533a8.753 8.753 0 0 0-2.648.632v-.457c0-.204 0-.386-.21-.386h-3c-.205 0-.209.18-.209.386v12.934c0 .207.015.36.217.36l2.953.003ZM47.18 12.14h-1.54a7.755 7.755 0 0 0-2.656.462V7.597c0-.15-.18-.222-.36-.222h-2.735c-.18 0-.342.07-.35.215v8.934h3.665c.38-1.032 1.263-1.342 2.818-1.342h.77c2.178 0 3.05.846 3.05 3.048v1.539c0 2.203-.875 3.152-3.05 3.152h-.77c-2.202 0-3.048-.95-3.048-3.152v-1.06h-3.427v6.949c0 .18.157.18.337.18h8.763c2.886-.082 4.598-2.72 4.598-6.063v-1.538c0-3.87-2.204-6.097-6.066-6.097M110.516 26.154l-4.591-.017c-2.526 0-4.405-1.623-4.577-3.864a.366.366 0 0 1 .361-.386l2.733.01c.209 0 .31.18.385.39.234.7 1.16.78 1.467.78l3.844.015c.361 0 1.522-.206 1.525-1.263.002-1.057-1.16-1.082-1.518-1.082l-4.208-.02c-2.685-.01-4.616-1.665-4.607-4.095.009-2.43 1.952-4.148 4.605-4.138l4.048.015c2.397 0 4.202 1.465 4.525 3.551a.366.366 0 0 1-.11.277.372.372 0 0 1-.278.11h-2.684a.818.818 0 0 1-.563-.39 1.704 1.704 0 0 0-1.288-.468l-3.247-.01c-.361 0-1.571 0-1.576 1.05 0 1.082 1.21 1.04 1.54 1.04l4.236.015c2.675.011 4.578 1.717 4.569 4.169-.009 2.451-1.923 4.33-4.6 4.319M140.059 12.335h-3.389c-2.663 0-4.6 1.763-4.6 4.191v8.93c0 .202 0 .386.201.386h3.001c.206 0 .23-.18.23-.386V16.5c0-1.047 1.174-1.102 1.535-1.102h3.023c.153 0 .276-.031.276-.2v-2.641c0-.17-.123-.215-.276-.226M156.447 25.45c0 .203 0 .385.2.385h3.002c.207 0 .23-.18.23-.387v-6.734h-3.432v6.736ZM159.683 12.47h-3c-.208 0-.23.18-.23.385v3.677h3.427v-3.677c0-.202 0-.386-.202-.386M64.94 21.637c0 1.05-.108 1.154-1.508 1.154h-3.814c-.36 0-1.538-.1-1.538-1.154v-.38c0-1.083 1.18-1.129 1.538-1.129h3.814c.36 0 1.508.051 1.508 1.128v.38Zm3.427-3.247c0-3.864-2.228-6.067-6.095-6.067h-5.52a.37.37 0 0 0-.36.386v2.276a.374.374 0 0 0 .36.384h5.145c1.712 0 2.608.541 2.918 1.817a5.933 5.933 0 0 0-.997-.105h-4.582c-2.637 0-4.582 1.74-4.582 4.176v.38c0 2.436 1.945 4.203 4.582 4.203h8.922a.18.18 0 0 0 .18-.103.7.7 0 0 0 .04-.284l-.01-7.063ZM154.707 12.322h-2.885c-.206 0-.309.21-.386.449 0 0-2.926 8.405-3.012 8.405-.087 0-3.014-8.405-3.014-8.405-.078-.24-.181-.451-.386-.451h-2.886c-.206 0-.283.211-.181.45 0 0 3.994 11.059 4.824 12.904v.02c.05.112.112.132.147.135h2.957c.038 0 .098-.023.15-.137.808-1.784 4.833-12.927 4.833-12.927.102-.24.027-.45-.181-.45M165.996 16.524c.599-.767 1.001-.901 2.647-.927h.772a4.075 4.075 0 0 1 2.054.346c.225.163.422.36.584.584.154.21.18.393.392.393h3.228c.212 0 .284-.19.212-.393a5.977 5.977 0 0 0-.426-.956c-1.06-2.037-2.985-3.107-5.655-3.118h-1.551c-2.924 0-5.316 1.263-5.926 4.068l3.669.003Zm9.66 5.015h-3.027c-.204 0-.286.18-.387.39-.441.804-1.322 1.142-2.721 1.142h-.772c-2.228 0-3.083-.855-3.083-3.081v-1.276h-3.473v1.276c0 3.938 2.228 6.158 6.166 6.158h1.551c3.211 0 5.312-1.5 5.954-4.22.05-.203 0-.39-.21-.39M15.83 32a15.828 15.828 0 0 0 15.667-13.587L.166 18.41A15.827 15.827 0 0 0 15.831 32ZM9.012 16.86c-1.29 0-2.542-.202-2.719-.796-.15-.5.457-.94 1.001-1.28a57.157 57.157 0 0 1 7.145-3.274 6.191 6.191 0 0 1 3.596-.23c.91.195 8.6 1.608 13.487 2.502A15.825 15.825 0 0 0 3.277 6.167 15.826 15.826 0 0 0 .135 17.874H31.6c.036-.325.061-.653.078-.983L9.012 16.86Z"/></g><defs><clipPath id="clip0_18007_40"><path fill="#fff" d="M0 0h192v32H0z"/></clipPath></defs></svg>