<svg><symbol id="baneservice-black" viewBox="0 0 120 20" fill="none" xmlns="http://www.w3.org/2000/svg"><g clip-path="url('#clip0_14309_360')" fill="#1F4A21"><path d="M113.048 11.036c.127-1.022.688-1.423 1.886-1.423h.478c1.199 0 1.758.401 1.887 1.423h-4.251Zm2.604-3.324h-.962c-2.413 0-3.803 1.39-3.803 3.803v.842c0 2.412 1.39 3.786 3.803 3.786h4.01a.248.248 0 0 0 .219-.24V14.48c0-.127.015-.239-.113-.239h-3.877c-1.152 0-1.793-.468-1.854-1.407h6.15a.247.247 0 0 0 .24-.239V11.51c0-2.413-1.406-3.803-3.819-3.803M74.862 11.036c.127-1.022.687-1.423 1.885-1.423h.48c1.197 0 1.757.401 1.884 1.423h-4.249Zm2.604-3.324h-.96c-2.41 0-3.8 1.39-3.8 3.803v.842c0 2.412 1.39 3.786 3.8 3.786h4.013a.248.248 0 0 0 .22-.24V14.48c0-.127.015-.239-.113-.239h-3.88c-1.15 0-1.792-.468-1.853-1.407h6.151a.245.245 0 0 0 .239-.239V11.51c0-2.413-1.406-3.803-3.817-3.803M55.875 11.036c.127-1.022.687-1.423 1.885-1.423h.479c1.198 0 1.757.401 1.886 1.423h-4.25Zm2.604-3.324h-.959c-2.412 0-3.801 1.39-3.801 3.803v.842c0 2.412 1.389 3.786 3.801 3.786h4.01a.248.248 0 0 0 .22-.24V14.48c0-.127.015-.239-.113-.239h-3.882c-1.15 0-1.791-.468-1.852-1.407h6.15a.246.246 0 0 0 .24-.239V11.51c0-2.413-1.406-3.803-3.819-3.803M45.925 16.147c.129 0 .16-.097.16-.225v-4.385c0-1.377.285-1.905 1.89-1.905h.478c1.633 0 1.904.529 1.904 1.664v4.623c0 .13.01.225.14.225h1.864c.127 0 .142-.098.142-.225v-4.623c0-2.368-1.281-3.569-3.81-3.569h-.958a5.468 5.468 0 0 0-1.655.395v-.285c0-.127 0-.241-.131-.241h-1.875c-.128 0-.13.112-.13.24v8.084c0 .13.008.226.135.226l1.846.001ZM29.486 7.588h-.962a4.847 4.847 0 0 0-1.66.288V4.748c0-.094-.113-.139-.225-.139h-1.71c-.112 0-.213.045-.218.135v5.584H27c.237-.645.79-.84 1.762-.84h.481c1.361 0 1.907.53 1.907 1.906v.962c0 1.376-.547 1.97-1.907 1.97h-.481c-1.377 0-1.905-.594-1.905-1.97v-.662h-2.142v4.342c0 .113.098.113.21.113h5.477c1.804-.052 2.874-1.7 2.874-3.79v-.961c0-2.418-1.378-3.81-3.791-3.81M69.073 16.346l-2.87-.01c-1.578 0-2.752-1.015-2.86-2.415a.224.224 0 0 1 .136-.223.224.224 0 0 1 .09-.018l1.708.005c.13 0 .194.113.24.244.147.438.726.488.918.488l2.402.01c.225 0 .951-.13.953-.79.001-.66-.725-.676-.949-.676l-2.63-.013c-1.678-.007-2.885-1.04-2.879-2.559.006-1.519 1.22-2.593 2.878-2.586l2.53.009c1.498 0 2.626.915 2.829 2.22a.235.235 0 0 1-.243.24h-1.678a.513.513 0 0 1-.352-.243 1.065 1.065 0 0 0-.805-.292l-2.03-.007c-.224 0-.981 0-.984.657 0 .676.757.65.963.65l2.647.01c1.672.006 2.861 1.073 2.856 2.605-.006 1.532-1.202 2.706-2.875 2.7M87.536 7.71h-2.118c-1.664 0-2.875 1.102-2.875 2.62v5.58c0 .127 0 .242.125.242h1.876c.129 0 .144-.113.144-.241v-5.599c0-.654.733-.688.959-.688h1.89c.095 0 .172-.02.172-.126v-1.65c0-.106-.077-.134-.172-.141M97.78 15.906c0 .127 0 .241.124.241h1.877c.129 0 .143-.113.143-.242v-4.209h-2.145v4.21ZM99.802 7.793h-1.875c-.13 0-.144.113-.144.241v2.298h2.142V8.034c0-.126 0-.241-.126-.241M40.587 13.523c0 .657-.068.722-.943.722h-2.383c-.226 0-.962-.064-.962-.722v-.238c0-.676.737-.705.962-.705h2.383c.226 0 .943.032.943.705v.238Zm2.142-2.03c0-2.414-1.393-3.79-3.81-3.79h-3.45a.232.232 0 0 0-.225.24v1.423a.233.233 0 0 0 .226.24h3.215c1.07 0 1.63.338 1.824 1.135a3.696 3.696 0 0 0-.624-.065h-2.863c-1.649 0-2.864 1.088-2.864 2.61v.238c0 1.522 1.216 2.626 2.864 2.626h5.576a.113.113 0 0 0 .113-.064.438.438 0 0 0 .024-.178l-.006-4.414ZM96.692 7.7H94.89c-.129 0-.193.132-.241.282 0 0-1.829 5.253-1.883 5.253-.054 0-1.884-5.253-1.884-5.253-.048-.15-.112-.282-.24-.282h-1.805c-.128 0-.177.132-.112.282 0 0 2.496 6.911 3.014 8.064v.012c.032.07.07.083.092.085h1.848c.024 0 .061-.015.094-.086.505-1.115 3.02-8.079 3.02-8.079.065-.15.017-.28-.112-.28M103.748 10.328c.374-.48.625-.564 1.654-.58h.482c.44-.04.882.034 1.284.216.14.102.264.225.365.365.096.131.113.246.245.246h2.018c.132 0 .177-.118.132-.246a3.73 3.73 0 0 0-.266-.597c-.663-1.273-1.866-1.942-3.534-1.949h-.97c-1.828 0-3.322.79-3.704 2.543l2.294.002Zm6.037 3.134h-1.892c-.127 0-.179.113-.242.244-.275.502-.826.713-1.7.713h-.483c-1.392 0-1.927-.534-1.927-1.926v-.796h-2.17v.796c0 2.462 1.392 3.85 3.853 3.85h.97c2.006 0 3.32-.938 3.721-2.638.032-.127 0-.243-.131-.243M9.894 20a9.893 9.893 0 0 0 9.791-8.492L.104 11.506A9.892 9.892 0 0 0 9.894 20ZM5.632 10.537c-.806 0-1.588-.126-1.699-.497-.093-.312.286-.587.626-.8a35.727 35.727 0 0 1 4.466-2.047 3.87 3.87 0 0 1 2.247-.143c.57.122 5.375 1.004 8.43 1.564A9.894 9.894 0 0 0 4.954 1.31a9.891 9.891 0 0 0-4.87 9.86H19.75c.023-.202.038-.408.049-.614l-14.167-.019Z"/></g><defs><clipPath id="clip0_14309_360"><path fill="#fff" d="M0 0h120v20H0z"/></clipPath></defs></symbol><symbol id="arrow-right" viewBox="0 0 20 20" fill="none" xmlns="http://www.w3.org/2000/svg"><rect width="20" height="20" rx="10" fill="#BAD862"/><path d="M6.464 10h7.072M10 6.464 13.536 10 10 13.535" stroke="#1F4A21" stroke-linecap="round" stroke-linejoin="round"/></symbol><symbol id="about-top" viewBox="0 0 1440 243" fill="none" xmlns="http://www.w3.org/2000/svg"><path transform="rotate(-180 1440 243)" fill="#1F4A21" d="M1440 243h1440v8H1440z"/><path transform="rotate(-180 1440 195)" fill="#1F4A21" d="M1440 195h1440v17H1440z"/><path transform="rotate(-180 1440 150)" fill="#1F4A21" d="M1440 150h1440v28H1440z"/><path transform="rotate(-180 1440 105)" fill="#1F4A21" d="M1440 105h1440v40H1440z"/><path transform="rotate(-180 1440 57)" fill="#1F4A21" d="M1440 57h1440v57H1440z"/></symbol></svg>